<?xml version="1.0" encoding="utf-8"?>
<!-- Generator: Adobe Illustrator 16.0.0, SVG Export Plug-In . SVG Version: 6.00 Build 0)  -->
<!DOCTYPE svg PUBLIC "-//W3C//DTD SVG 1.1//EN" "http://www.w3.org/Graphics/SVG/1.1/DTD/svg11.dtd">
<svg version="1.1" xmlns="http://www.w3.org/2000/svg" xmlns:xlink="http://www.w3.org/1999/xlink" x="0px" y="0px" width="475px"
	 height="792px" viewBox="0 0 475 792" enable-background="new 0 0 475 792" xml:space="preserve">
<g id="Layer_1">
	<path fill="none" stroke="#3F3E3E" stroke-width="11" stroke-linejoin="round" stroke-miterlimit="10" d="M-1424.152,616.397
		c2.256-6.419,96.508-38.099,181.181-5.147c0,0,29.399,86.201-4.552,154.464c-8.193,16.473-172.076,14.416-176.629,0
		C-1428.705,751.295-1452.377,696.721-1424.152,616.397z"/>
	<path fill="none" stroke="#302F2F" stroke-width="4" stroke-linecap="round" stroke-miterlimit="10" d="M-1281.509,296.086"/>
	
		<path fill="#DCE7EA" stroke="#3F3E3E" stroke-width="13" stroke-linecap="round" stroke-linejoin="round" stroke-miterlimit="10" d="
		M-1359.47,298.935c-1.627-0.672-3.064-1.869-3.962-3.396c-67.104,3.921-109.427,18.5-118.505,21.896
		c-0.336,1.053-0.863,2.009-1.55,2.833l11.276,77.268c0.712,0.459,1.34,1.033,1.883,1.697c16.436-6.137,53.445-17.657,107.665-21.5
		c0.16-0.16,0.335-0.302,0.508-0.446c0.489-1.59,1.474-2.977,2.738-3.991L-1359.47,298.935z"/>
	<path fill="none" stroke="#3F3E3E" stroke-width="10" stroke-miterlimit="10" d="M-1359.457,340.089
		c9.969-6.695,41.953-27.321,79.794,2.12"/>
	<path fill="none" stroke="#3F3E3E" stroke-width="4" stroke-linecap="round" stroke-miterlimit="10" d="M-1359.457,340.31
		c-0.004,0.38,1.075-0.331,3.095-1.595"/>
	<path fill="#636464" stroke="#3F3E3E" stroke-width="8" stroke-linecap="round" stroke-miterlimit="10" d="M-1121.858,307.872
		c73.923-171.68-70.774-220.417-70.774-220.417s-24.503,74.603,12.126,121.446C-1143.877,255.744-1121.858,307.872-1121.858,307.872
		z"/>
	<path fill="#7F7F7F" stroke="#3F3E3E" stroke-width="8" stroke-linecap="round" stroke-miterlimit="10" d="M-1192.633,87.455
		c-85.643-88.12-125.38-74.603-125.38-74.603s-39.765,0.989-61.784,36.928c-22.02,35.939-63.392,29-63.392,29
		s-56.14-8.675-56.14,76.338c0,0,9.436,29.494-29.884,69.398c-39.32,39.903-6.291,70.666,0,83.911s4.718,21.307,6.291,30.288
		c1.573,8.981,7.245-136.674,186.854-141.051C-1156.46,193.286-1192.633,87.455-1192.633,87.455z"/>
	<polyline fill="none" stroke="#3F3E3E" stroke-width="7" stroke-linecap="round" stroke-miterlimit="10" points="-1188.579,56.225 
		-1191.454,83.869 -1160.419,77.725 	"/>
	<g>
		<g>
			<path fill="#3F3E3E" d="M-1482.818,320.344c0.168-0.227,0.146-0.201-0.064,0.08c0.067-0.083,0.135-0.167,0.202-0.251
				c0.252-0.315,0.511-0.628,0.717-0.976c0.527-0.888,0.563-1.852,0.38-2.841c-0.183-0.989-1.39-1.958-2.411-1.835
				c-0.47,0.056-0.71,0.084-1.1,0.242c-0.122,0.05-0.244,0.099-0.367,0.145c-0.459,0.17,0.309-0.033,0.377-0.023
				c0.42,0.114,0.841,0.228,1.262,0.341c-0.005-0.004-0.01-0.007-0.015-0.011c0.413,0.72,0.825,1.439,1.238,2.159
				c0.146,1.306-1.174,2.069-0.415,1.416c1.034-0.889,0.909-2.626,0-3.535c-1.017-1.018-2.503-0.888-3.535,0
				c-0.574,0.493-1.142,1.298-1.052,2.101c0.078,0.697,0.22,1.272,0.734,1.787c0.521,0.521,1.096,0.651,1.809,0.747
				c0.366,0.049,0.797-0.104,1.143-0.242c0.351-0.14,1.027-0.257-0.08-0.125c-0.804-0.612-1.607-1.224-2.411-1.835
				c-0.017-0.124-0.034-0.249-0.051-0.373c0.085-0.44,0.095-0.534,0.029-0.278c0.171-0.616,0.15-0.351,0-0.127
				c0.408-0.606,0.114-0.146,0.01-0.017c-0.246,0.305-0.485,0.616-0.717,0.932c-0.809,1.101-0.187,2.786,0.897,3.42
				C-1484.97,321.984-1483.624,321.44-1482.818,320.344L-1482.818,320.344z"/>
		</g>
	</g>
	<g>
		<g>
			<path fill="#3F3E3E" d="M-1482.229,316.789c-0.464-0.985-1.016-1.711-2.076-2.125c-0.672-0.263-1.536-0.104-2.146,0.242
				c-0.579,0.328-0.877,0.748-1.274,1.264c-0.833,1.083-0.167,2.797,0.897,3.42c0.577,0.338,1.281,0.43,1.926,0.252
				c0.689-0.189,1.077-0.606,1.494-1.149c-0.671,1.102-1.847,1.049-3.529-0.157c0.045,0.07,0.086,0.142,0.124,0.215
				c0.098,0.182,0.179,0.374,0.267,0.561c0.581,1.232,2.324,1.54,3.42,0.897C-1481.874,319.476-1481.648,318.021-1482.229,316.789
				L-1482.229,316.789z"/>
		</g>
	</g>
	<g>
		<g>
			<path fill="#3F3E3E" d="M-1358.764,297.242c-0.273,0.308-0.316,0.369-0.129,0.185c-0.487,0.457-0.222,0.187-0.047,0.078
				c0.457-0.282,0.883-0.617,1.159-1.088c0.411-0.701,0.355-1.36,0.227-2.116c-0.044-0.265-0.166-1.21-0.082-0.177
				c-0.097-1.191-0.709-2.004-1.835-2.411c-0.009-0.003-0.019-0.007-0.029-0.01c0.612,0.803,1.224,1.607,1.835,2.411
				c0-0.009,0.001-0.019,0.001-0.028c-0.114,0.42-0.228,0.841-0.341,1.262c-0.106,0.137-0.211,0.274-0.317,0.411
				c0.173-0.158,0.076-0.087-0.291,0.212c0.242-0.182,0.379-0.059-0.318,0.11c-0.443,0-0.886,0-1.329,0
				c0.012,0.002,0.024,0.005,0.036,0.008c-0.582-0.582-1.164-1.164-1.746-1.746c0.429,1.096,1.17,1.957,2.306,2.339
				c0.342,0.115,0.717,0.16,1.078,0.145c0.094-0.004,0.19-0.022,0.284-0.035c0.394-0.049-0.692-0.189-0.336-0.051
				c1.272,0.494,2.742-0.533,3.075-1.746c0.389-1.415-0.477-2.583-1.746-3.075c-0.419-0.163-0.847-0.139-1.277-0.093
				c-0.254,0.004-0.135,0.028,0.357,0.069c0.25,0.072,0.474,0.193,0.671,0.362c0.487,0.958,0.539,1.01,0.157,0.158
				c-0.315-0.538-0.876-1.009-1.494-1.149c-1.808-0.409-3.679,0.991-3.77,2.847c-0.057,1.167,0.818,2.044,1.835,2.411
				c0.01,0.003,0.019,0.007,0.029,0.01c-0.612-0.804-1.224-1.607-1.835-2.411c0.027,0.328,0.072,0.655,0.14,0.978
				c0.055,0.26,0.137,1.048,0.056,0.054c0.244-0.589,0.488-1.179,0.732-1.768c0.689-0.611,0.1-0.115-0.103,0.024
				c-0.531,0.365-0.938,0.746-1.271,1.306c-0.696,1.172-0.272,2.736,0.897,3.42
				C-1361.003,298.831-1359.458,298.412-1358.764,297.242L-1358.764,297.242z"/>
		</g>
	</g>
	<g>
		<g>
			<path fill="#3F3E3E" d="M-1364.12,377.089c0.685,1.797,2.057,3.318,4.14,3.221c1.777-0.083,3.368-1.268,4.165-2.829
				c-1.523-0.642-3.046-1.284-4.569-1.926c-0.077,0.267-0.04,0.207,0.11-0.18c-0.133,0.225-0.074,0.161,0.178-0.191
				c-0.182,0.177-0.103,0.125,0.238-0.155c-0.095,0.071-0.204,0.125-0.308,0.181c-0.571,0.299,0.436-0.174,0.037-0.007
				c-0.351,0.146-0.708,0.286-1.045,0.462c-1.493,0.779-2.077,2.278-2.248,3.855c-0.143,1.324,1.246,2.544,2.5,2.5
				c2.477-0.087,4.909-1.764,5.359-4.311c0.237-1.341-0.341-2.689-1.746-3.075c-1.22-0.335-2.837,0.403-3.075,1.746
				c-0.019,0.136-0.048,0.27-0.087,0.401c0.138-0.281,0.143-0.296,0.014-0.045c-0.153,0.234-0.139,0.227,0.043-0.022
				c-0.088,0.099-0.183,0.192-0.283,0.279c0.247-0.184,0.253-0.199,0.021-0.046c-0.251,0.128-0.233,0.127,0.057-0.004
				c-0.125,0.043-0.251,0.079-0.38,0.105c0.34-0.035,0.366-0.044,0.078-0.028c0.833,0.833,1.667,1.667,2.5,2.5
				c-0.053,0.33-0.05,0.364,0.006,0.101c0.089-0.266,0.063-0.211-0.077,0.165c0.142-0.223,0.092-0.164-0.151,0.179
				c0.187-0.176,0.115-0.127-0.218,0.146c0.133-0.097,0.285-0.169,0.433-0.24c0.235-0.104,0.15-0.069-0.257,0.105
				c0.275-0.115,0.549-0.23,0.823-0.347c1.151-0.492,1.996-1.539,2.3-2.745c0.275-1.091-0.167-2.248-1.149-2.823
				c-1.125-0.659-2.801-0.316-3.42,0.897c-0.049,0.103-0.103,0.202-0.163,0.299c-0.289,0.498,0.364-0.397-0.016,0.021
				c-0.117,0.13-0.539,0.412,0.019,0.019c-0.157,0.11-0.607,0.266,0.062,0.014c-0.484,0.183,0.617-0.018,0.113,0.006
				c0.131,0.022,0.262,0.043,0.393,0.065c-0.25-0.068-0.182-0.029,0.206,0.116c-0.449-0.208,0.401,0.4,0.036,0.006
				c0.5,0.54-0.029-0.301,0.184,0.257c-0.485-1.272-1.666-2.134-3.075-1.746C-1363.593,374.349-1364.605,375.814-1364.12,377.089
				L-1364.12,377.089z"/>
		</g>
	</g>
	<g>
		<g>
			<path fill="#3F3E3E" d="M-1472.447,397.005c-0.26,0.762,0.21-0.362-0.143,0.35c-0.113,0.228-0.253,0.44-0.393,0.652
				c0.237-0.36-0.237,0.278-0.244,0.285c-0.228,0.255-0.484,0.481-0.741,0.704c1.01-0.131,2.02-0.261,3.029-0.391
				c0.766,0.544,0.633,0.527,0.308,0.072c-0.738-1.033-2.232-1.733-3.42-0.896c-1.075,0.756-1.648,1.546-1.776,2.869
				c-0.084,0.872,0.504,1.674,0.879,2.407c0.621,1.212,2.294,1.557,3.42,0.897c1.223-0.717,1.518-2.208,0.897-3.421
				c-0.096-0.188-0.198-0.369-0.304-0.552c-0.03-0.053-0.06-0.105-0.089-0.159c0.391,0.732,0.223,1.49-0.503,2.274
				c-1.14-0.299-2.28-0.598-3.42-0.896c0.478,0.669,0.779,1.218,1.486,1.721c0.953,0.679,2.231,0.299,3.029-0.391
				c1.313-1.134,2.246-2.559,2.806-4.196c0.441-1.29-0.493-2.731-1.746-3.076C-1470.746,394.881-1472.006,395.717-1472.447,397.005
				L-1472.447,397.005z"/>
		</g>
	</g>
	<path fill="none" stroke="#282828" stroke-width="7" stroke-linecap="round" stroke-miterlimit="10" d="M-1399.158,596.514"/>
	
		<path fill="#DCE7EA" stroke="#3F3E3E" stroke-width="13" stroke-linecap="round" stroke-linejoin="round" stroke-miterlimit="10" d="
		M-1171.139,398.256l11.04-81.741c-33.786-11.85-118.467-20.406-118.467-20.406v80.11
		C-1278.565,376.219-1218.322,382.891-1171.139,398.256z"/>
	
		<line opacity="0.5" fill="#9D9A9A" stroke="#3F3E3E" stroke-linecap="round" stroke-linejoin="round" stroke-miterlimit="10" x1="-1433.271" y1="326.812" x2="-1449" y2="361.367"/>
	
		<line fill="none" stroke="#3F3E3E" stroke-linecap="round" stroke-linejoin="round" stroke-miterlimit="10" x1="-1433.271" y1="371.268" x2="-1411.252" y2="319.083"/>
	
		<line fill="none" stroke="#3F3E3E" stroke-linecap="round" stroke-linejoin="round" stroke-miterlimit="10" x1="-1247.682" y1="358.401" x2="-1231.953" y2="323.845"/>
	
		<line fill="none" stroke="#3F3E3E" stroke-linecap="round" stroke-linejoin="round" stroke-miterlimit="10" x1="-1231.953" y1="368.301" x2="-1209.934" y2="316.116"/>
	<path fill="none" stroke="#3F3E3E" stroke-width="8" stroke-linejoin="round" stroke-miterlimit="10" d="M-1236.159,740.449
		c64.046-37.424,47.476-82.619,47.476-82.619s-6.278-23.681-21.242-24.499c-14.965-0.817-22.704,24.499-22.704,24.499"/>
	<path fill="none" stroke="#3F3E3E" stroke-width="6" stroke-linejoin="round" stroke-miterlimit="10" d="M-1233.579,669.882
		c0,0,5.632-16.274,16.524-15.746c10.89,0.524,15.454,15.746,15.454,15.746s12.062,29.054-34.545,53.108"/>
	<path opacity="0.5" fill="#A6B2B2" d="M-1318.954,588.7c0,0-46.74-50.546-0.605-70.979c4.035-1.788,28.612-14.463,34.131-17.206
		c50.543-25.105,159.471-70.21,58.718-132.013c-14.106-8.653-36.109-20.568-62.387-19.626c0,0-55.28,2.886-90.174-19.359
		c-31.507-20.087-46.534-57.006-4.378-81.734c0,0-55.876,21.772-55.471,72.053c0.083,10.217,7.639,21.431,17.668,32.264
		c21,22.681,60.464,43.236,77.306,62.378c17.994,20.448,12.067,31.287-1.572,43.019
		C-1378.224,485.456-1401.238,519.87-1318.954,588.7z"/>
	<path fill="none" stroke="#3F3E3E" stroke-width="11" stroke-linejoin="round" stroke-miterlimit="10" d="M-900.42,620.922
		c2.281-6.42,97.594-38.1,183.219-5.148c0,0,29.73,86.201-4.603,154.465c-8.284,16.473-174.013,14.416-178.616,0
		C-905.024,755.818-928.961,701.244-900.42,620.922z"/>
	<path fill="none" stroke="#302F2F" stroke-width="4" stroke-linecap="round" stroke-miterlimit="10" d="M-756.171,300.61"/>
	<path fill="none" stroke="#3F3E3E" stroke-width="13" stroke-linecap="round" stroke-linejoin="round" stroke-miterlimit="10" d="
		M-835.009,303.459c-1.647-0.672-3.099-1.869-4.009-3.396c-67.857,3.921-110.657,18.5-119.837,21.896
		c-0.341,1.053-0.873,2.009-1.567,2.833l11.401,77.267c0.722,0.459,1.356,1.033,1.906,1.697
		c16.618-6.137,54.045-17.657,108.875-21.5c0.161-0.16,0.339-0.302,0.515-0.446c0.493-1.59,1.49-2.977,2.769-3.991L-835.009,303.459
		z"/>
	<path fill="none" stroke="#3F3E3E" stroke-width="10" stroke-miterlimit="10" d="M-834.996,344.613
		c10.081-6.695,42.426-27.321,80.692,2.12"/>
	<path fill="none" stroke="#3F3E3E" stroke-width="4" stroke-linecap="round" stroke-miterlimit="10" d="M-834.996,344.833
		c-0.004,0.38,1.088-0.331,3.128-1.595"/>
	<path fill="none" stroke="#3F3E3E" stroke-width="8" stroke-linecap="round" stroke-miterlimit="10" d="M-674.31,151.754"/>
	<path fill="none" stroke="#3F3E3E" stroke-width="8" stroke-linecap="round" stroke-miterlimit="10" d="M-674.31,151.754
		c0.743,20.715,5.768,43.323,20.276,61.671c37.042,46.843,59.309,98.971,59.309,98.971c74.755-171.68-71.57-220.417-71.57-220.417"
		/>
	<path fill="none" stroke="#3F3E3E" stroke-width="8" stroke-linecap="round" stroke-miterlimit="10" d="M-674.308,151.754
		c18.638-29.032,8.013-59.775,8.013-59.775c-86.605-88.12-126.79-74.603-126.79-74.603s-40.212,0.989-62.479,36.928
		c-22.269,35.939-64.105,29-64.105,29s-56.771-8.675-56.771,76.338c0,0,9.542,29.494-30.22,69.398
		c-39.763,39.903-6.362,70.666,0,83.911s4.771,21.307,6.362,30.288c1.59,8.981,7.326-136.674,188.955-141.051
		C-727.607,200.17-690.252,176.587-674.308,151.754"/>
	<polyline fill="none" stroke="#3F3E3E" stroke-width="7" stroke-linecap="round" stroke-miterlimit="10" points="-662.196,60.749 
		-665.103,88.393 -633.719,82.249 	"/>
	<g>
		<g>
			<path fill="#3F3E3E" d="M-959.77,324.868c-0.395,0.532,0.061-0.07,0.144-0.172c0.254-0.314,0.513-0.629,0.721-0.976
				c0.53-0.884,0.565-1.855,0.382-2.841c-0.186-0.99-1.389-1.956-2.411-1.835c-0.469,0.055-0.714,0.085-1.105,0.242
				c-0.123,0.05-0.246,0.099-0.371,0.145c-0.462,0.17,0.306-0.033,0.374-0.023c0.421,0.114,0.842,0.228,1.262,0.341
				c-0.005-0.004-0.01-0.007-0.015-0.011c0.413,0.72,0.825,1.439,1.238,2.159c0.145,1.312-1.176,2.065-0.411,1.416
				c1.039-0.883,0.905-2.63,0-3.535c-1.021-1.021-2.498-0.882-3.535,0c-0.577,0.49-1.145,1.297-1.056,2.101
				c0.077,0.697,0.22,1.272,0.734,1.787c0.521,0.52,1.096,0.652,1.809,0.747c0.366,0.049,0.801-0.105,1.148-0.242
				c0.352-0.138,1.035-0.255-0.072-0.125c-0.804-0.612-1.607-1.224-2.411-1.835c-0.017-0.124-0.033-0.249-0.05-0.373
				c0.085-0.44,0.095-0.533,0.027-0.278c0.174-0.617,0.147-0.349-0.003-0.127c0.411-0.605,0.109-0.144,0.006-0.017
				c-0.248,0.304-0.487,0.617-0.721,0.932c-0.814,1.097-0.183,2.789,0.896,3.42C-961.916,326.511-960.58,325.96-959.77,324.868
				L-959.77,324.868z"/>
		</g>
	</g>
	<g>
		<g>
			<path fill="#3F3E3E" d="M-959.174,321.313c-0.369-0.774-0.767-1.354-1.484-1.873c-1.132-0.817-2.848-0.262-3.635,0.749
				c-0.429,0.55-0.732,1.04-0.732,1.768c0,0.66,0.266,1.301,0.732,1.768c0.874,0.874,2.696,1.078,3.535,0
				c0.062-0.087,0.131-0.169,0.207-0.244c-2.852-1.237-3.942-1.343-3.272-0.318c0.131,0.212,0.226,0.451,0.333,0.675
				c0.586,1.229,2.319,1.542,3.42,0.897C-958.822,324.002-958.587,322.543-959.174,321.313L-959.174,321.313z"/>
		</g>
	</g>
	<g>
		<g>
			<path fill="#3F3E3E" d="M-834.32,301.766c-0.272,0.307-0.314,0.369-0.126,0.185c-0.492,0.456-0.214,0.184-0.041,0.078
				c0.458-0.28,0.886-0.617,1.161-1.088c0.41-0.7,0.356-1.361,0.228-2.116c-0.046-0.265-0.17-1.209-0.085-0.177
				c-0.098-1.187-0.707-2.01-1.835-2.411c-0.01-0.003-0.02-0.007-0.029-0.01c0.611,0.803,1.224,1.607,1.835,2.411
				c0.001-0.01,0.001-0.019,0.002-0.028c-0.114,0.42-0.228,0.841-0.342,1.262c-0.105,0.137-0.211,0.274-0.316,0.411
				c0.174-0.157,0.077-0.086-0.288,0.212c0.245-0.181,0.379-0.056-0.314,0.11c-0.442,0-0.886,0-1.329,0
				c0.013,0.002,0.024,0.005,0.037,0.008c-0.582-0.582-1.164-1.164-1.746-1.746c0.422,1.063,1.192,2.038,2.347,2.353
				c0.352,0.096,0.738,0.155,1.105,0.125c0.068-0.008,0.136-0.017,0.203-0.026c0.41-0.054-0.677-0.192-0.308-0.054
				c1.277,0.479,2.739-0.522,3.076-1.746c0.386-1.404-0.472-2.597-1.746-3.075c-0.445-0.167-0.881-0.127-1.332-0.09
				c-0.426-0.01-0.155,0.071,0.812,0.244c0.353,0.201,0.573,0.515,0.664,0.94c-0.329-0.828-0.854-1.547-1.783-1.754
				c-1.795-0.401-3.653,1.026-3.741,2.855c-0.056,1.163,0.816,2.049,1.836,2.411c0.01,0.003,0.02,0.007,0.028,0.01
				c-0.611-0.804-1.224-1.607-1.835-2.411c0.027,0.328,0.072,0.655,0.141,0.978c0.057,0.26,0.141,1.048,0.059,0.054
				c0.244-0.589,0.488-1.179,0.732-1.768c0.694-0.608,0.091-0.112-0.11,0.024c-0.533,0.363-0.94,0.748-1.276,1.306
				c-0.703,1.168-0.266,2.739,0.897,3.42C-836.555,303.358-835.022,302.931-834.32,301.766L-834.32,301.766z"/>
		</g>
	</g>
	<g>
		<g>
			<path fill="#3F3E3E" d="M-839.685,381.613c0.694,1.802,2.069,3.317,4.159,3.221c1.783-0.082,3.382-1.266,4.188-2.829
				c-1.523-0.642-3.047-1.284-4.57-1.926c-0.077,0.267-0.041,0.207,0.108-0.18c-0.134,0.225-0.075,0.161,0.176-0.191
				c-0.183,0.177-0.104,0.125,0.234-0.155c-0.096,0.071-0.205,0.125-0.312,0.181c-0.575,0.298,0.432-0.172,0.031-0.007
				c-0.352,0.145-0.711,0.287-1.05,0.462c-1.5,0.773-2.087,2.277-2.26,3.855c-0.146,1.323,1.247,2.546,2.5,2.5
				c2.486-0.091,4.933-1.75,5.394-4.311c0.24-1.34-0.345-2.689-1.746-3.075c-1.223-0.336-2.834,0.404-3.076,1.746
				c-0.019,0.105-0.231,0.729,0,0.215c-0.062,0.125-0.135,0.245-0.215,0.359c0.175-0.23,0.167-0.242-0.025-0.035
				c0.237-0.167,0.238-0.171,0.002-0.014c-0.254,0.131-0.244,0.138,0.028,0.02c-0.132,0.047-0.266,0.086-0.403,0.116
				c0.32-0.031,0.334-0.038,0.042-0.022c0.833,0.833,1.667,1.667,2.5,2.5c-0.052,0.33-0.05,0.364,0.008,0.101
				c0.089-0.266,0.064-0.211-0.075,0.165c0.144-0.223,0.094-0.163-0.148,0.179c0.188-0.175,0.116-0.126-0.215,0.146
				c0.135-0.098,0.288-0.169,0.438-0.24c0.235-0.104,0.151-0.069-0.253,0.105c0.276-0.114,0.551-0.231,0.826-0.347
				c1.157-0.489,2.004-1.536,2.313-2.745c0.278-1.089-0.17-2.25-1.149-2.823c-1.128-0.661-2.797-0.313-3.421,0.897
				c-0.049,0.103-0.104,0.202-0.164,0.299c-0.291,0.498,0.362-0.396-0.02,0.021c-0.119,0.13-0.542,0.406,0.014,0.019
				c-0.158,0.11-0.609,0.261,0.056,0.014c-0.488,0.182,0.614-0.018,0.106,0.006c0.13,0.022,0.26,0.043,0.39,0.065
				c-0.251-0.068-0.184-0.029,0.201,0.116c-0.451-0.208,0.399,0.399,0.031,0.006c0.5,0.535-0.034-0.298,0.18,0.257
				c-0.489-1.271-1.663-2.135-3.076-1.746C-839.154,378.872-840.175,380.339-839.685,381.613L-839.685,381.613z"/>
		</g>
	</g>
	<g>
		<g>
			<path fill="#3F3E3E" d="M-949.23,401.528c-0.263,0.761,0.21-0.361-0.146,0.35c-0.114,0.228-0.256,0.44-0.397,0.652
				c0.238-0.357-0.247,0.281-0.251,0.285c-0.229,0.255-0.489,0.481-0.749,0.704c1.01-0.131,2.02-0.261,3.029-0.391
				c0.488,0.578,0.641,0.689,0.455,0.332c-0.036-0.096-0.088-0.182-0.153-0.26c-0.745-1.035-2.227-1.729-3.421-0.896
				c-1.079,0.751-1.653,1.547-1.782,2.869c-0.086,0.874,0.506,1.677,0.885,2.408c0.627,1.209,2.291,1.559,3.421,0.896
				c1.22-0.714,1.523-2.21,0.897-3.42c-0.098-0.188-0.201-0.37-0.309-0.552c-0.03-0.053-0.061-0.106-0.09-0.159
				c0.387,0.732,0.221,1.49-0.499,2.273c-1.14-0.299-2.28-0.598-3.421-0.896c0.48,0.668,0.78,1.223,1.493,1.721
				c0.963,0.675,2.222,0.3,3.029-0.391c1.325-1.131,2.263-2.555,2.831-4.196c0.445-1.289-0.497-2.732-1.746-3.076
				C-947.533,399.403-948.785,400.242-949.23,401.528L-949.23,401.528z"/>
		</g>
	</g>
	<path fill="none" stroke="#282828" stroke-width="7" stroke-linecap="round" stroke-miterlimit="10" d="M-875.145,601.037"/>
	<path fill="none" stroke="#3F3E3E" stroke-width="13" stroke-linecap="round" stroke-linejoin="round" stroke-miterlimit="10" d="
		M-644.559,402.779l11.163-81.741c-34.165-11.85-119.8-20.406-119.8-20.406v80.11C-753.195,380.743-692.275,387.415-644.559,402.779
		z"/>
	
		<line opacity="0.5" fill="#9D9A9A" stroke="#3F3E3E" stroke-linecap="round" stroke-linejoin="round" stroke-miterlimit="10" x1="-909.642" y1="331.336" x2="-925.547" y2="365.891"/>
	
		<line fill="none" stroke="#3F3E3E" stroke-linecap="round" stroke-linejoin="round" stroke-miterlimit="10" x1="-909.642" y1="375.792" x2="-887.375" y2="323.606"/>
	
		<line fill="none" stroke="#3F3E3E" stroke-linecap="round" stroke-linejoin="round" stroke-miterlimit="10" x1="-721.963" y1="362.925" x2="-706.058" y2="328.369"/>
	
		<line fill="none" stroke="#3F3E3E" stroke-linecap="round" stroke-linejoin="round" stroke-miterlimit="10" x1="-706.058" y1="372.825" x2="-683.79" y2="320.64"/>
	<path fill="none" stroke="#3F3E3E" stroke-width="8" stroke-linejoin="round" stroke-miterlimit="10" d="M-710.312,744.973
		c64.767-37.424,48.01-82.619,48.01-82.619s-6.35-23.68-21.48-24.498c-15.134-0.818-22.96,24.498-22.96,24.498"/>
	<path fill="none" stroke="#3F3E3E" stroke-width="6" stroke-linejoin="round" stroke-miterlimit="10" d="M-707.701,674.406
		c0,0,5.693-16.275,16.709-15.746c11.012,0.523,15.628,15.746,15.628,15.746s12.197,29.053-34.934,53.107"/>
	<path opacity="0.5" fill="#A6B2B2" d="M-794.037,593.225c0,0-47.267-50.547-0.613-70.98c4.079-1.787,28.935-14.463,34.516-17.205
		c51.111-25.105,161.265-70.211,59.378-132.014c-14.264-8.653-36.516-20.568-63.089-19.626c0,0-55.901,2.886-91.188-19.359
		c-31.862-20.087-47.057-57.006-4.427-81.734c0,0-56.505,21.772-56.097,72.053c0.084,10.217,7.725,21.431,17.867,32.264
		c21.235,22.681,61.143,43.236,78.176,62.378c18.195,20.447,12.202,31.287-1.589,43.018
		C-853.974,489.98-877.247,524.395-794.037,593.225z"/>
	<path fill="none" stroke="#3F3E3E" stroke-width="11" stroke-linejoin="round" stroke-miterlimit="10" d="M-381.587,614.718
		c2.294-6.42,98.139-38.1,184.243-5.148c0,0,29.896,86.201-4.629,154.465c-8.332,16.473-174.985,14.416-179.614,0
		C-386.217,749.614-410.288,695.04-381.587,614.718z"/>
	<path fill="none" stroke="#302F2F" stroke-width="4" stroke-linecap="round" stroke-miterlimit="10" d="M-236.532,294.407"/>
	
		<path fill="#DCE7EA" stroke="#3F3E3E" stroke-width="13" stroke-linecap="round" stroke-linejoin="round" stroke-miterlimit="10" d="
		M-315.811,297.255c-1.656-0.672-3.115-1.869-4.029-3.396c-68.239,3.921-111.277,18.5-120.508,21.896
		c-0.343,1.053-0.877,2.009-1.576,2.833l11.466,77.268c0.725,0.459,1.363,1.033,1.917,1.697
		c16.711-6.137,54.347-17.657,109.482-21.5c0.162-0.16,0.341-0.302,0.518-0.446c0.496-1.59,1.499-2.977,2.784-3.991
		L-315.811,297.255z"/>
	<path fill="none" stroke="#3F3E3E" stroke-width="10" stroke-miterlimit="10" d="M-315.798,338.409
		c10.137-6.695,42.662-27.321,81.144,2.12"/>
	<path fill="none" stroke="#3F3E3E" stroke-width="4" stroke-linecap="round" stroke-miterlimit="10" d="M-315.798,338.63
		c-0.003,0.38,1.096-0.331,3.147-1.595"/>
	<path fill="#7F7F7F" stroke="#7F7F7F" stroke-width="8" stroke-linecap="round" stroke-miterlimit="10" d="M-74.184,306.192
		c75.172-171.68-71.972-220.417-71.972-220.417s-24.915,74.603,12.332,121.446C-96.575,254.064-74.184,306.192-74.184,306.192z"/>
	<path fill="#7F7F7F" stroke="#7F7F7F" stroke-width="8" stroke-linecap="round" stroke-miterlimit="10" d="M-146.155,85.775
		c-87.089-88.12-127.498-74.603-127.498-74.603s-40.437,0.989-62.828,36.928c-22.392,35.939-64.463,29-64.463,29
		s-57.089-8.675-57.089,76.338c0,0,9.597,29.494-30.39,69.398c-39.984,39.903-6.397,70.666,0,83.911
		c6.399,13.245,4.8,21.307,6.399,30.288c1.599,8.981,7.367-136.674,190.011-141.051C-109.37,191.606-146.155,85.775-146.155,85.775z
		"/>
	<polyline fill="none" stroke="#7F7F7F" stroke-width="7" stroke-linecap="round" stroke-miterlimit="10" points="-142.031,54.545 
		-144.954,82.189 -113.395,76.045 	"/>
	<g>
		<g>
			<path fill="#3F3E3E" d="M-441.281,318.665c-0.396,0.53,0.065-0.071,0.147-0.172c0.255-0.313,0.515-0.629,0.723-0.976
				c0.532-0.882,0.567-1.857,0.382-2.841c-0.186-0.992-1.387-1.953-2.41-1.835c-0.459,0.053-0.703,0.081-1.085,0.233
				c-0.121,0.048-0.241,0.097-0.363,0.142c-0.597,0.223-0.287-0.24,0.999,0.075c0.368,0.214,0.735,0.429,1.104,0.643
				c-0.004-0.004-0.008-0.009-0.012-0.013c0.244,0.589,0.488,1.178,0.732,1.768c0-0.007,0-0.014,0.001-0.021
				c-0.114,0.42-0.228,0.841-0.342,1.262c0.093-0.186-0.009-0.056-0.304,0.39c0.07-0.077,0.156-0.144,0.236-0.211
				c1.042-0.88,0.903-2.633,0-3.535c-1.023-1.023-2.496-0.879-3.535,0c-0.643,0.543-1.02,1.237-1.056,2.095
				c-0.058,1.354,1.186,2.581,2.533,2.539c0.415-0.013,0.746-0.082,1.114-0.224c0.363-0.14,1.104-0.272-0.023-0.143
				c-0.804-0.612-1.607-1.224-2.41-1.835c-0.018-0.124-0.034-0.249-0.051-0.373c0.085-0.44,0.095-0.533,0.027-0.278
				c0.175-0.618,0.146-0.348-0.005-0.127c0.413-0.604,0.106-0.143,0.003-0.017c-0.249,0.304-0.487,0.617-0.723,0.932
				c-0.819,1.094-0.179,2.791,0.896,3.42c0.577,0.338,1.281,0.43,1.926,0.252C-442.093,319.626-441.688,319.21-441.281,318.665
				L-441.281,318.665z"/>
		</g>
	</g>
	<g>
		<g>
			<path fill="#3F3E3E" d="M-440.68,315.109c-0.372-0.772-0.771-1.356-1.49-1.873c-1.135-0.815-2.847-0.264-3.637,0.749
				c-0.429,0.549-0.732,1.041-0.732,1.768c0,0.661,0.266,1.301,0.732,1.768c0.875,0.875,2.695,1.076,3.535,0
				c0.062-0.087,0.131-0.169,0.207-0.244c-2.851-1.234-3.94-1.34-3.269-0.318c0.132,0.212,0.228,0.45,0.335,0.675
				c0.591,1.228,2.317,1.543,3.421,0.897C-440.332,317.8-440.09,316.337-440.68,315.109L-440.68,315.109z"/>
		</g>
	</g>
	<g>
		<g>
			<path fill="#3F3E3E" d="M-315.131,295.562c-0.128,0.208-0.3,0.371-0.515,0.488c0.109-0.084,0.234-0.153,0.353-0.225
				c0.458-0.279,0.887-0.618,1.162-1.088c0.41-0.701,0.355-1.36,0.227-2.116c-0.045-0.265-0.168-1.209-0.083-0.177
				c-0.097-1.184-0.707-2.015-1.835-2.411c-0.01-0.003-0.021-0.007-0.03-0.01c0.612,0.803,1.224,1.607,1.836,2.411
				c0-0.009,0.001-0.019,0.001-0.028c-0.113,0.42-0.228,0.841-0.342,1.262c-0.105,0.137-0.211,0.274-0.316,0.411
				c0.174-0.157,0.078-0.086-0.287,0.212c0.245-0.181,0.379-0.055-0.313,0.11c-0.443,0-0.886,0-1.329,0
				c0.013,0.002,0.024,0.005,0.037,0.008c-0.582-0.582-1.164-1.164-1.746-1.746c0.423,1.062,1.195,2.04,2.351,2.353
				c0.354,0.095,0.741,0.155,1.109,0.125c0.067-0.008,0.136-0.017,0.204-0.026c0.411-0.053-0.676-0.192-0.307-0.054
				c1.278,0.478,2.738-0.521,3.076-1.746c0.386-1.403-0.472-2.598-1.746-3.075c-0.446-0.167-0.883-0.126-1.335-0.09
				c-0.426-0.01-0.156,0.071,0.809,0.244c0.351,0.202,0.57,0.515,0.66,0.94c-0.33-0.827-0.854-1.547-1.783-1.754
				c-1.784-0.397-3.669,1.022-3.742,2.855c-0.047,1.161,0.809,2.051,1.835,2.411c0.01,0.003,0.02,0.007,0.029,0.01
				c-0.611-0.804-1.223-1.607-1.835-2.411c0.026,0.328,0.072,0.655,0.141,0.978c0.055,0.26,0.138,1.048,0.057,0.054
				c0.244-0.589,0.488-1.179,0.732-1.768c0.691-0.608,0.092-0.113-0.111,0.024c-0.539,0.364-0.939,0.748-1.278,1.306
				c-0.708,1.166-0.264,2.741,0.896,3.42C-317.36,297.156-315.836,296.725-315.131,295.562L-315.131,295.562z"/>
		</g>
	</g>
	<g>
		<g>
			<path fill="#3F3E3E" d="M-320.498,375.409c0.698,1.804,2.074,3.317,4.169,3.221c1.786-0.082,3.388-1.266,4.198-2.829
				c-1.523-0.642-3.047-1.284-4.57-1.926c-0.077,0.267-0.041,0.207,0.108-0.18c-0.134,0.225-0.076,0.161,0.175-0.191
				c-0.184,0.176-0.105,0.125,0.232-0.155c-0.097,0.071-0.206,0.125-0.312,0.181c-0.379,0.195,0.634-0.256,0.027-0.007
				c-0.354,0.146-0.712,0.287-1.053,0.462c-1.502,0.771-2.091,2.277-2.266,3.855c-0.146,1.323,1.248,2.546,2.5,2.5
				c2.49-0.091,4.944-1.746,5.41-4.311c0.242-1.339-0.346-2.69-1.746-3.075c-1.225-0.337-2.832,0.404-3.076,1.746
				c-0.019,0.106-0.234,0.727-0.002,0.215c-0.062,0.125-0.135,0.245-0.217,0.359c0.174-0.231,0.165-0.242-0.026-0.035
				c0.458-0.449-0.589,0.25,0.024,0.006c-0.133,0.047-0.268,0.086-0.406,0.116c0.319-0.031,0.332-0.039,0.039-0.022
				c0.833,0.833,1.667,1.667,2.5,2.5c-0.052,0.33-0.049,0.364,0.008,0.101c0.09-0.266,0.065-0.211-0.073,0.165
				c0.144-0.223,0.095-0.163-0.147,0.179c0.189-0.175,0.118-0.126-0.213,0.146c0.136-0.098,0.29-0.169,0.44-0.24
				c-1.046,0.493,0.656-0.278,0.576-0.242c1.157-0.51,2.004-1.518,2.319-2.745c0.279-1.089-0.17-2.25-1.149-2.823
				c-1.13-0.662-2.794-0.312-3.421,0.897c-0.049,0.103-0.104,0.202-0.165,0.299c-0.293,0.498,0.362-0.396-0.022,0.021
				c-0.119,0.13-0.543,0.403,0.011,0.019c-0.158,0.109-0.61,0.259,0.053,0.014c-0.49,0.182,0.613-0.017,0.104,0.006
				c0.13,0.022,0.259,0.043,0.389,0.065c-0.251-0.068-0.185-0.029,0.199,0.116c-0.453-0.208,0.397,0.399,0.028,0.006
				c0.501,0.532-0.038-0.296,0.176,0.257c-0.491-1.27-1.66-2.135-3.074-1.746C-319.967,372.668-320.991,374.137-320.498,375.409
				L-320.498,375.409z"/>
		</g>
	</g>
	<g>
		<g>
			<path fill="#3F3E3E" d="M-430.656,395.326c-0.264,0.759,0.209-0.361-0.148,0.349c-0.115,0.228-0.258,0.44-0.399,0.652
				c0.238-0.355-0.253,0.284-0.255,0.286c-0.232,0.254-0.493,0.481-0.755,0.704c1.01-0.131,2.02-0.261,3.029-0.391
				c0.489,0.579,0.641,0.689,0.455,0.333c-0.037-0.096-0.089-0.182-0.155-0.26c-0.749-1.037-2.22-1.726-3.42-0.897
				c-1.082,0.748-1.656,1.547-1.786,2.87c-0.086,0.875,0.508,1.676,0.89,2.407c0.629,1.207,2.288,1.561,3.42,0.897
				c1.217-0.714,1.527-2.213,0.896-3.421c-0.098-0.188-0.201-0.369-0.31-0.552c-0.03-0.053-0.061-0.105-0.091-0.159
				c0.385,0.733,0.219,1.491-0.496,2.274c-1.141-0.299-2.28-0.598-3.42-0.896c0.481,0.667,0.781,1.222,1.493,1.721
				c0.964,0.677,2.22,0.297,3.029-0.391c1.331-1.129,2.272-2.553,2.845-4.197c0.447-1.288-0.498-2.732-1.746-3.075
				C-428.96,393.2-430.209,394.04-430.656,395.326L-430.656,395.326z"/>
		</g>
	</g>
	<path fill="none" stroke="#282828" stroke-width="7" stroke-linecap="round" stroke-miterlimit="10" d="M-356.169,594.833"/>
	
		<path fill="#DCE7EA" stroke="#3F3E3E" stroke-width="13" stroke-linecap="round" stroke-linejoin="round" stroke-miterlimit="10" d="
		M-124.296,396.576l11.226-81.741c-34.357-11.85-120.468-20.406-120.468-20.406v80.11
		C-233.538,374.54-172.279,381.211-124.296,396.576z"/>
	
		<line opacity="0.5" fill="#9D9A9A" stroke="#3F3E3E" stroke-linecap="round" stroke-linejoin="round" stroke-miterlimit="10" x1="-390.859" y1="325.132" x2="-406.854" y2="359.688"/>
	
		<line fill="none" stroke="#3F3E3E" stroke-linecap="round" stroke-linejoin="round" stroke-miterlimit="10" x1="-390.859" y1="369.588" x2="-368.47" y2="317.403"/>
	
		<line fill="none" stroke="#3F3E3E" stroke-linecap="round" stroke-linejoin="round" stroke-miterlimit="10" x1="-202.134" y1="356.721" x2="-186.14" y2="322.165"/>
	
		<line fill="none" stroke="#3F3E3E" stroke-linecap="round" stroke-linejoin="round" stroke-miterlimit="10" x1="-186.14" y1="366.622" x2="-163.746" y2="314.436"/>
	<path fill="none" stroke="#3F3E3E" stroke-width="8" stroke-linejoin="round" stroke-miterlimit="10" d="M-190.416,738.769
		c65.128-37.424,48.278-82.619,48.278-82.619s-6.384-23.68-21.602-24.498s-23.088,24.498-23.088,24.498"/>
	<path fill="none" stroke="#3F3E3E" stroke-width="6" stroke-linejoin="round" stroke-miterlimit="10" d="M-187.792,668.202
		c0,0,5.726-16.275,16.802-15.746c11.075,0.523,15.717,15.746,15.717,15.746s12.265,29.053-35.129,53.107"/>
	<path opacity="0.5" fill="#A6B2B2" d="M-274.61,587.021c0,0-47.53-50.547-0.615-70.98c4.103-1.787,29.095-14.463,34.706-17.205
		c51.398-25.105,162.168-70.211,59.71-132.013c-14.343-8.653-36.717-20.568-63.44-19.626c0,0-56.213,2.886-91.698-19.359
		c-32.037-20.087-47.318-57.006-4.451-81.734c0,0-56.819,21.772-56.408,72.053c0.083,10.217,7.768,21.431,17.968,32.264
		c21.354,22.681,61.484,43.236,78.61,62.378c18.3,20.447,12.271,31.287-1.599,43.018
		C-334.881,483.776-358.285,518.19-274.61,587.021z"/>
	<path fill="none" stroke="#3F3E3E" stroke-width="11" stroke-linejoin="round" stroke-miterlimit="10" d="M141.515,617.689
		c2.255-6.419,96.508-38.099,181.18-5.147c0,0,29.4,86.201-4.552,154.464c-8.191,16.473-172.076,14.416-176.628,0
		C136.962,752.587,113.29,698.013,141.515,617.689z"/>
	<path fill="none" stroke="#302F2F" stroke-width="4" stroke-linecap="round" stroke-miterlimit="10" d="M284.158,297.378"/>
	
		<path fill="#DCE7EA" stroke="#3F3E3E" stroke-width="13" stroke-linecap="round" stroke-linejoin="round" stroke-miterlimit="10" d="
		M206.197,300.228c-1.629-0.673-3.063-1.869-3.964-3.396c-67.104,3.921-109.427,18.5-118.505,21.896
		c-0.336,1.054-0.862,2.009-1.55,2.833l11.275,77.268c0.714,0.459,1.341,1.033,1.884,1.697c16.436-6.137,53.444-17.657,107.665-21.5
		c0.159-0.16,0.335-0.302,0.509-0.446c0.488-1.591,1.474-2.977,2.737-3.991L206.197,300.228z"/>
	<path fill="none" stroke="#3F3E3E" stroke-width="10" stroke-miterlimit="10" d="M206.21,341.381
		c9.969-6.695,41.953-27.321,79.795,2.12"/>
	<path fill="none" stroke="#3F3E3E" stroke-width="4" stroke-linecap="round" stroke-miterlimit="10" d="M206.21,341.602
		c-0.004,0.38,1.075-0.331,3.094-1.595"/>
	<path fill="#665F57" stroke="#3F3E3E" stroke-width="8" stroke-linecap="round" stroke-miterlimit="10" d="M443.809,309.164
		c73.923-171.68-70.775-220.417-70.775-220.417s-24.503,74.603,12.127,121.446C421.791,257.036,443.809,309.164,443.809,309.164z"/>
	<path fill="#847B6D" stroke="#3F3E3E" stroke-width="8" stroke-linecap="round" stroke-miterlimit="10" d="M373.033,88.747
		c-85.641-88.12-125.379-74.603-125.379-74.603s-39.765,0.989-61.783,36.928c-22.021,35.939-63.393,29-63.393,29
		s-56.141-8.675-56.141,76.338c0,0,9.437,29.494-29.884,69.398c-39.32,39.903-6.291,70.666,0,83.911s4.718,21.307,6.291,30.288
		S49.99,203.333,229.6,198.956C409.207,194.578,373.033,88.747,373.033,88.747z"/>
	<polyline fill="none" stroke="#3F3E3E" stroke-width="7" stroke-linecap="round" stroke-miterlimit="10" points="377.088,57.517 
		374.213,85.161 405.247,79.017 	"/>
	<g>
		<g>
			<path fill="#3F3E3E" d="M82.848,321.636c0.169-0.227,0.146-0.2-0.064,0.08c0.067-0.084,0.135-0.167,0.202-0.252
				c0.252-0.315,0.511-0.628,0.717-0.976c0.527-0.889,0.562-1.851,0.382-2.841c-0.182-0.99-1.393-1.957-2.411-1.835
				c-0.47,0.056-0.711,0.084-1.101,0.242c-0.099,0.04-0.198,0.08-0.298,0.119c-0.867,0.335,0.335-0.583,1.556,0.333
				c0.412,0.72,0.825,1.439,1.237,2.159c0.143,1.31-1.173,2.068-0.414,1.416c1.034-0.889,0.909-2.626,0-3.535
				c-1.018-1.018-2.503-0.888-3.535,0c-0.575,0.494-1.14,1.297-1.053,2.101c0.076,0.696,0.221,1.273,0.734,1.787
				c0.442,0.442,1.165,0.804,1.809,0.747c0.452-0.041,0.753-0.087,1.143-0.242c0.352-0.14,1.027-0.256-0.078-0.125
				c-0.804-0.612-1.607-1.224-2.411-1.835c-0.017-0.124-0.034-0.249-0.051-0.373c0.084-0.44,0.094-0.533,0.027-0.278
				c0.173-0.617,0.149-0.35,0-0.127c0.407-0.606,0.113-0.146,0.01-0.017c-0.246,0.305-0.485,0.616-0.717,0.932
				c-0.809,1.101-0.188,2.786,0.896,3.42C80.696,323.276,82.043,322.732,82.848,321.636L82.848,321.636z"/>
		</g>
	</g>
	<g>
		<g>
			<path fill="#3F3E3E" d="M83.438,318.081c-0.464-0.985-1.017-1.71-2.076-2.125c-0.672-0.263-1.534-0.104-2.146,0.242
				c-0.579,0.327-0.878,0.748-1.274,1.264c-0.834,1.083-0.168,2.797,0.896,3.42c0.577,0.338,1.281,0.43,1.926,0.252
				c0.689-0.189,1.077-0.606,1.494-1.149c-0.67,1.102-1.846,1.05-3.528-0.156c0.045,0.069,0.086,0.141,0.123,0.215
				c0.099,0.182,0.18,0.374,0.267,0.56c0.581,1.233,2.325,1.539,3.421,0.897C83.793,320.768,84.018,319.314,83.438,318.081
				L83.438,318.081z"/>
		</g>
	</g>
	<g>
		<g>
			<path fill="#3F3E3E" d="M206.902,298.534c-0.273,0.307-0.316,0.369-0.129,0.185c-0.487,0.458-0.222,0.187-0.047,0.078
				c0.457-0.282,0.882-0.617,1.158-1.088c0.41-0.702,0.354-1.359,0.227-2.116c-0.044-0.265-0.163-1.21-0.08-0.177
				c-0.096-1.188-0.709-2.01-1.836-2.411c-0.009-0.003-0.019-0.007-0.028-0.01c0.611,0.803,1.224,1.607,1.835,2.411
				c0.001-0.009,0.001-0.019,0.001-0.028c-0.113,0.42-0.228,0.841-0.341,1.262c-0.106,0.137-0.212,0.274-0.318,0.411
				c0.173-0.158,0.076-0.087-0.291,0.212c0.242-0.182,0.379-0.059-0.317,0.11c-0.443,0-0.886,0-1.329,0
				c0.012,0.002,0.024,0.005,0.036,0.008c-0.582-0.582-1.164-1.164-1.746-1.746c0.43,1.096,1.169,1.957,2.306,2.339
				c0.343,0.115,0.718,0.16,1.078,0.145c0.095-0.004,0.189-0.022,0.283-0.034c0.395-0.049-0.691-0.189-0.336-0.051
				c1.272,0.495,2.742-0.534,3.076-1.746c0.389-1.416-0.478-2.582-1.746-3.075c-0.42-0.163-0.848-0.139-1.277-0.094
				c-0.254,0.004-0.135,0.028,0.357,0.069c0.251,0.072,0.475,0.193,0.671,0.362c0.487,0.958,0.539,1.01,0.157,0.158
				c-0.314-0.538-0.876-1.009-1.494-1.149c-1.792-0.405-3.698,0.987-3.77,2.847c-0.044,1.166,0.808,2.045,1.836,2.411
				c0.01,0.003,0.02,0.007,0.029,0.01c-0.612-0.804-1.225-1.607-1.836-2.411c0.026,0.328,0.072,0.655,0.14,0.978
				c0.055,0.26,0.135,1.049,0.055,0.054c0.244-0.589,0.488-1.179,0.732-1.768c0.686-0.613,0.104-0.116-0.102,0.024
				c-0.531,0.366-0.938,0.746-1.272,1.307c-0.697,1.171-0.271,2.736,0.897,3.42C204.664,300.124,206.206,299.703,206.902,298.534
				L206.902,298.534z"/>
		</g>
	</g>
	<g>
		<g>
			<path fill="#3F3E3E" d="M201.547,378.38c0.685,1.797,2.058,3.318,4.14,3.221c1.777-0.083,3.368-1.269,4.165-2.829
				c-1.523-0.642-3.047-1.284-4.57-1.926c-0.076,0.267-0.039,0.207,0.11-0.18c-0.133,0.225-0.073,0.162,0.179-0.191
				c-0.183,0.178-0.104,0.126,0.237-0.155c-0.095,0.072-0.204,0.126-0.309,0.181c-0.571,0.299,0.437-0.173,0.037-0.007
				c-0.351,0.146-0.707,0.286-1.045,0.462c-1.493,0.78-2.077,2.279-2.248,3.856c-0.144,1.324,1.246,2.544,2.5,2.5
				c2.477-0.087,4.911-1.764,5.36-4.312c0.235-1.341-0.341-2.688-1.746-3.075c-1.219-0.335-2.84,0.402-3.076,1.746
				c-0.018,0.136-0.047,0.27-0.087,0.401c0.139-0.28,0.144-0.295,0.015-0.044c-0.152,0.234-0.139,0.227,0.043-0.022
				c-0.088,0.1-0.183,0.192-0.282,0.279c0.246-0.184,0.253-0.199,0.021-0.046c-0.252,0.128-0.233,0.127,0.056-0.004
				c-0.124,0.043-0.251,0.079-0.381,0.105c0.341-0.035,0.366-0.044,0.078-0.028c0.833,0.833,1.667,1.667,2.5,2.5
				c-0.053,0.33-0.05,0.364,0.007,0.101c0.089-0.266,0.063-0.211-0.077,0.164c0.143-0.223,0.092-0.164-0.151,0.179
				c0.188-0.176,0.115-0.127-0.218,0.146c0.133-0.098,0.285-0.169,0.433-0.24c0.235-0.104,0.149-0.07-0.257,0.105
				c0.274-0.115,0.55-0.23,0.823-0.348c1.151-0.492,1.996-1.539,2.301-2.745c0.275-1.091-0.167-2.248-1.149-2.823
				c-1.124-0.659-2.802-0.316-3.421,0.897c-0.049,0.103-0.103,0.202-0.162,0.299c-0.289,0.498,0.363-0.397-0.016,0.021
				c-0.117,0.129-0.539,0.412,0.019,0.019c-0.156,0.111-0.606,0.266,0.062,0.014c-0.483,0.183,0.617-0.018,0.113,0.006
				c0.131,0.021,0.262,0.043,0.393,0.065c-0.25-0.068-0.182-0.029,0.207,0.116c-0.449-0.209,0.4,0.399,0.036,0.005
				c0.499,0.541-0.028-0.301,0.185,0.257c-0.484-1.272-1.667-2.134-3.076-1.746C202.074,375.641,201.062,377.105,201.547,378.38
				L201.547,378.38z"/>
		</g>
	</g>
	<g>
		<g>
			<path fill="#3F3E3E" d="M93.219,398.297c-0.26,0.762,0.211-0.362-0.142,0.35c-0.113,0.228-0.253,0.44-0.393,0.652
				c0.236-0.36-0.237,0.278-0.243,0.285c-0.228,0.255-0.484,0.481-0.741,0.704c1.01-0.131,2.02-0.261,3.029-0.392
				c0.764,0.544,0.633,0.529,0.308,0.073c-0.736-1.035-2.232-1.731-3.42-0.897c-1.075,0.756-1.648,1.547-1.777,2.87
				c-0.084,0.872,0.504,1.675,0.881,2.407c0.621,1.211,2.293,1.557,3.42,0.896c1.223-0.716,1.52-2.208,0.896-3.42
				c-0.096-0.188-0.198-0.369-0.305-0.552c-0.029-0.053-0.06-0.105-0.089-0.159c0.391,0.732,0.223,1.49-0.503,2.275
				c-1.141-0.3-2.28-0.599-3.42-0.897c0.477,0.67,0.777,1.218,1.485,1.722c0.953,0.677,2.23,0.299,3.029-0.392
				c1.313-1.134,2.245-2.559,2.806-4.196c0.44-1.29-0.493-2.731-1.746-3.076C94.92,396.173,93.659,397.009,93.219,398.297
				L93.219,398.297z"/>
		</g>
	</g>
	<path fill="none" stroke="#282828" stroke-width="7" stroke-linecap="round" stroke-miterlimit="10" d="M166.509,597.806"/>
	
		<path fill="#DCE7EA" stroke="#3F3E3E" stroke-width="13" stroke-linecap="round" stroke-linejoin="round" stroke-miterlimit="10" d="
		M394.528,399.548l11.04-81.741c-33.786-11.851-118.467-20.405-118.467-20.405v80.109
		C287.102,377.511,347.344,384.183,394.528,399.548z"/>
	
		<line opacity="0.5" fill="#9D9A9A" stroke="#3F3E3E" stroke-linecap="round" stroke-linejoin="round" stroke-miterlimit="10" x1="132.395" y1="328.104" x2="116.667" y2="362.659"/>
	
		<line fill="none" stroke="#3F3E3E" stroke-linecap="round" stroke-linejoin="round" stroke-miterlimit="10" x1="132.395" y1="372.56" x2="154.414" y2="320.374"/>
	
		<line fill="none" stroke="#3F3E3E" stroke-linecap="round" stroke-linejoin="round" stroke-miterlimit="10" x1="317.985" y1="359.692" x2="333.713" y2="325.137"/>
	
		<line fill="none" stroke="#3F3E3E" stroke-linecap="round" stroke-linejoin="round" stroke-miterlimit="10" x1="333.713" y1="369.593" x2="355.734" y2="317.407"/>
	<path fill="none" stroke="#3F3E3E" stroke-width="8" stroke-linejoin="round" stroke-miterlimit="10" d="M329.509,741.741
		c64.046-37.424,47.475-82.619,47.475-82.619s-6.278-23.681-21.243-24.499c-14.965-0.817-22.703,24.499-22.703,24.499"/>
	<path fill="none" stroke="#3F3E3E" stroke-width="6" stroke-linejoin="round" stroke-miterlimit="10" d="M332.088,671.174
		c0,0,5.632-16.274,16.523-15.746c10.89,0.524,15.454,15.746,15.454,15.746s12.062,29.054-34.544,53.108"/>
	<path opacity="0.5" fill="#A6B2B2" d="M246.712,589.992c0,0-46.739-50.546-0.604-70.979c4.034-1.788,28.611-14.463,34.13-17.206
		c50.543-25.105,159.471-70.21,58.717-132.013c-14.105-8.653-36.109-20.568-62.387-19.627c0,0-55.279,2.887-90.173-19.358
		c-31.507-20.087-46.533-57.006-4.379-81.734c0,0-55.876,21.772-55.47,72.053c0.081,10.217,7.637,21.432,17.667,32.264
		c20.999,22.681,60.463,43.236,77.306,62.378c17.994,20.448,12.066,31.287-1.57,43.019
		C187.443,486.748,164.43,521.162,246.712,589.992z"/>
</g>
<g id="Layer_2">
</g>
</svg>
